# xmcd
#
# Track frame offsets: 
#        150
#        34995
#        47134
#        69736
#        84111
#        97892
#        120769
#        136668
#        193184
#        212334
#        228001
#        250783
#        263422
#        279701
#        290893
#
# Disc length: 4127 seconds
#
# Revision: 0
# Processed by: cddbd v1.5.2PL0 Copyright (c) Steve Scherf et al.
# Submitted via: ExactAudioCopy v0.99pb4
#
DISCID=c8101d0f
DTITLE=Sharon Jones and The Dap-Kings - Live Muffathalle 2012 - CD 1
DYEAR=2012
DGENRE=Funk
TTITLE0=Intro Dap-Kings
TTITLE1=Intro Dap-tettes
TTITLE2=Intro Dap-tettes 2
TTITLE3=He Said I Can
TTITLE4=Without A Heart
TTITLE5=Longer and Stronger
TTITLE6=How Do I Let A Good Man Down
TTITLE7=When I Come Home
TTITLE8=Let Them Knock
TTITLE9=Money
TTITLE10=She Ain't A Child No More
TTITLE11=Mama Don't Like My Man
TTITLE12=What If We All Stopped Paying Taxes
TTITLE13=New Shoes
TTITLE14=Giving Up
EXTD=
EXTT0=
EXTT1=
EXTT2=
EXTT3=
EXTT4=
EXTT5=
EXTT6=
EXTT7=
EXTT8=
EXTT9=
EXTT10=
EXTT11=
EXTT12=
EXTT13=
EXTT14=
PLAYORDER=
